<svg id="Layer_1" data-name="Layer 1" xmlns="http://www.w3.org/2000/svg" viewBox="0 0 263.57 79.05"><title>maplink</title><circle cx="112.98" cy="34.72" r="3.97" transform="translate(77.96 146.52) rotate(-89.84)" style="fill:#500f89"/><path d="M16.46,45.6L7.19,33.06A4,4,0,0,0,4,31.44H0.09L0,63l7.66,0,0-17.56L14,54a3.18,3.18,0,0,0,4.93,0l6.31-8.46,0,17.56,7.59,0,0.09-31.61h-3.8a4.1,4.1,0,0,0-3.29,1.64Z" transform="translate(0 -1.08)" style="fill:#500f89"/><path d="M101.47,53.43l0.06-21.73-7.45,0L94,55.63c0,5.84,3.72,7.65,6.39,8.6,0.61-.6,5.21-4.56,5.21-4.56C103.07,58.67,101.46,57.06,101.47,53.43Z" transform="translate(0 -1.08)" style="fill:#500f89"/><path d="M134.82,40.84c-4.71,0-6.31,1.56-7.41,2.64L127,42.62a2.07,2.07,0,0,0-1.9-1.26h-3.37l-0.06,22,7.4,0,0-12.1c0-2.21,1.35-4.51,4.23-4.5s4.38,2.16,4.38,4.84l0,11.78,7.2,0,0-12.74C145,44.76,140.49,40.86,134.82,40.84Z" transform="translate(0 -1.08)" style="fill:#500f89"/><path d="M60.24,57.49c0-4.38,0-9.65,0-14a23.27,23.27,0,0,0-10.44-2.85c-7.34,0-13.2,4-13.22,11.77A10.83,10.83,0,0,0,47.26,63.62,9.11,9.11,0,0,0,54.34,61h0c0.41,1.37,1.72,2.61,4.13,2.71,0.31-.31,4-3.25,4-3.25A3.3,3.3,0,0,1,60.24,57.49Zm-7-3.69c0,2.64-2.58,3.94-4.59,4s-5.07-.53-5.06-5.39c0-4.62,3.22-6.16,6.2-6.16a6.85,6.85,0,0,1,3.49,1C53.28,48.64,53.26,52.79,53.25,53.8Z" transform="translate(0 -1.08)" style="fill:#500f89"/><path d="M79.17,40.67a10.67,10.67,0,0,0-7.5,2.59c-0.12-.32-0.25-0.62-0.37-0.89a2.06,2.06,0,0,0-1.88-1.22H65.79L65.71,72.6l7.45,0,0-10.15s1.61,1.22,5.45,1.23c6.19,0,11.59-4.13,11.61-11.52A11.07,11.07,0,0,0,79.17,40.67Zm-2,17.41a6.34,6.34,0,0,1-3.82-1.2c0-1.42,0-5,0-6,0-3.32,3-4.29,4.93-4.34s4.94,1,4.93,5.92C83.15,57.11,80,58.08,77.12,58.08Z" transform="translate(0 -1.08)" style="fill:#500f89"/><rect x="109.23" y="41.33" width="7.41" height="22.02" transform="translate(0.14 -1.38) rotate(0.16)" style="fill:#500f89"/><path d="M164.4,63.48l8.06,0-6.62-10.63c0.39-.31.76-0.61,1.12-1a14.63,14.63,0,0,0,4.69-10.43l-7,0a8.57,8.57,0,0,1-2.47,5.63,8.21,8.21,0,0,1-5.4,2.25V48.89l0-9.59,0-7.47v0.06l-6.62,0h-0.78l-0.09,31.57h0.78l6.62,0V63.37l0-6.06V56.12a15.42,15.42,0,0,0,2.87-.3Z" transform="translate(0 -1.08)" style="fill:#500f89"/><path d="M218.33,68.81C202.89,55.23,202,43.9,202,42.39c0-.11,0-0.58,0-0.58l-12.79,0s0,0.48,0,.52c0,7.74,2.95,19.65,21,36.17h0A6.34,6.34,0,1,0,218.33,68.81Z" transform="translate(0 -1.08)" style="fill:#ff6700"/><path d="M189.16,41.67v0h0v0.08h0a6.4,6.4,0,0,0,12.79,0h0s0-.05,0-0.08h0A12.67,12.67,0,0,1,214.6,29.17l0-12.79A25.41,25.41,0,0,0,189.16,41.67Z" transform="translate(0 -1.08)" style="fill:#500f89"/><path d="M215.15,16.38l-0.52,0a6.41,6.41,0,0,0,0,12.81h0a12.6,12.6,0,0,1,12.53,12.65s0,0,0,.06l12.83,0V41.84A25.4,25.4,0,0,0,215.15,16.38Z" transform="translate(0 -1.08)" style="fill:#ff6700"/><path d="M260.64,34.07L250.41,31.3A4,4,0,1,0,248.33,39l10.23,2.77A4,4,0,1,0,260.64,34.07Z" transform="translate(0 -1.08)" style="fill:#500f89"/><path d="M260.5,15.63a4,4,0,0,0-5.42-1.47l-9.19,5.27a4,4,0,1,0,3.95,6.88L259,21A4,4,0,0,0,260.5,15.63Z" transform="translate(0 -1.08)" style="fill:#500f89"/><path d="M241.93,1.22A4,4,0,0,0,237.07,4L234.3,14.24A4,4,0,1,0,242,16.31l2.77-10.23A4,4,0,0,0,241.93,1.22Z" transform="translate(0 -1.08)" style="fill:#500f89"/><circle cx="257.06" cy="17.6" r="0.04" transform="translate(26.99 132.53) rotate(-30.68)" style="fill:#500f89"/><path d="M240,41.82a6.41,6.41,0,0,0-12.83,0s0,0.05,0,.09h0s0,0.43,0,.48c0,1-.6,12.59-16.52,26.43a6.16,6.16,0,0,0-2.56,5,6.29,6.29,0,0,0,6.38,6.36,6.46,6.46,0,0,0,4.38-1.68h0C237,61.94,240,49.64,240,41.91h0S240,41.85,240,41.82Z" transform="translate(0 -1.08)" style="fill:#500f89"/></svg>